<svg width="60" height="60" viewBox="0 0 60 60" fill="none" xmlns="http://www.w3.org/2000/svg">
<path fill-rule="evenodd" clip-rule="evenodd" d="M23.6804 25.0941C24.091 24.5659 24.5664 24.0905 25.0946 23.6799L9.49408 8.07938L8.07987 9.49359L23.6804 25.0941ZM22.0619 29H0V31H22.0619C22.021 30.6724 22 30.3387 22 30C22 29.6613 22.021 29.3276 22.0619 29ZM23.6804 34.9059L8.07987 50.5064L9.49408 51.9206L25.0946 36.3201C24.5664 35.9095 24.091 35.4341 23.6804 34.9059ZM29 37.9381V60H31V37.9381C30.6724 37.979 30.3387 38 30 38C29.6613 38 29.3276 37.979 29 37.9381ZM34.9059 36.3196L50.5063 51.92L51.9205 50.5058L36.3201 34.9054C35.9095 35.4336 35.4341 35.909 34.9059 36.3196ZM37.9381 31H60V29H37.9381C37.979 29.3276 38 29.6613 38 30C38 30.3387 37.979 30.6724 37.9381 31ZM36.3201 25.0946L51.9205 9.49422L50.5063 8.08L34.9059 23.6804C35.4341 24.091 35.9095 24.5664 36.3201 25.0946ZM31 22.0619V0H29V22.0619C29.3276 22.021 29.6613 22 30 22C30.3387 22 30.6724 22.021 31 22.0619Z" fill="#22201F"/>
</svg>
