<svg width="33" height="33" viewBox="0 0 33 33" fill="none" xmlns="http://www.w3.org/2000/svg">
<path d="M6.95381 0.415218C6.91369 0.270175 7.09283 0.166746 7.19838 0.274015L12.6608 5.8254C15.5358 8.74719 19.733 9.94629 23.7177 8.98423L32.1324 6.95259C32.2805 6.91682 32.3773 7.10357 32.2628 7.20405L26.6923 12.0892C23.2551 15.1035 21.8945 19.8471 23.2116 24.2249L25.5882 32.1246C25.6326 32.2721 25.4478 32.3787 25.3423 32.2666L19.6893 26.2585C16.5566 22.929 11.7682 21.7354 7.43911 23.205L0.423206 25.5866C0.278895 25.6356 0.165593 25.4584 0.270639 25.348L6.23745 19.0764C9.06295 16.1066 10.1231 11.8722 9.03025 7.92151L6.95381 0.415218Z" fill="#F1B695"/>
</svg>
