<svg width="51" height="51" viewBox="0 0 51 51" fill="none" xmlns="http://www.w3.org/2000/svg">
<path d="M25.1711 0.149801C25.2229 -0.0499324 25.5065 -0.0499341 25.5583 0.149799L28.2386 10.4864C29.6493 15.9267 33.8109 20.2279 39.2017 21.8173L50.5859 25.1736C50.7863 25.2327 50.7733 25.5208 50.5684 25.5616L40.6052 27.5434C34.4575 28.7662 29.5901 33.4662 28.1529 39.5672L25.5594 50.5768C25.5109 50.7823 25.2184 50.7823 25.17 50.5768L22.5765 39.5672C21.1393 33.4662 16.2718 28.7662 10.1242 27.5434L0.160993 25.5616C-0.0439412 25.5208 -0.0569658 25.2327 0.143455 25.1736L11.5276 21.8173C16.9185 20.2279 21.0801 15.9267 22.4908 10.4864L25.1711 0.149801Z" fill="#B7745A"/>
</svg>
