<svg width="18" height="18" viewBox="0 0 18 18" fill="none" xmlns="http://www.w3.org/2000/svg">
<path d="M17.386 0.485457C17.4703 0.435879 17.5654 0.530922 17.5158 0.615212L14.95 4.97738C13.5996 7.27327 13.5529 10.1093 14.8268 12.4485L17.5171 17.3883C17.5644 17.4753 17.4635 17.5674 17.3812 17.5124L13.3782 14.8377C10.9082 13.1873 7.70205 13.1312 5.17583 14.6942L0.617207 17.5145C0.532109 17.5672 0.434083 17.4691 0.486732 17.384L3.30709 12.8254C4.87002 10.2992 4.8139 7.09301 3.16352 4.62304L0.48881 0.62007C0.433793 0.537732 0.525989 0.436807 0.612955 0.48417L5.55275 3.17444C7.89192 4.44838 10.728 4.4016 13.0239 3.0512L17.386 0.485457Z" fill="#CFAD7A"/>
</svg>
