<svg width="26" height="26" viewBox="0 0 26 26" fill="none" xmlns="http://www.w3.org/2000/svg">
<path d="M24.3432 1.47952C24.4572 1.41245 24.5858 1.54103 24.5187 1.65506L21.0477 7.55641C19.2208 10.6624 19.1575 14.4991 20.881 17.6637L24.5205 24.3465C24.5846 24.4641 24.448 24.5888 24.3366 24.5144L18.9212 20.8959C15.5797 18.6632 11.2423 18.5873 7.82468 20.7017L1.65756 24.5172C1.54243 24.5885 1.40982 24.4558 1.48104 24.3407L5.29655 18.1736C7.41096 14.756 7.33504 10.4185 5.10232 7.07703L1.48386 1.66163C1.40943 1.55024 1.53415 1.41371 1.6518 1.47778L8.33458 5.1173C11.4991 6.84075 15.3359 6.77746 18.4419 4.95059L24.3432 1.47952Z" stroke="#1C1817" stroke-width="1.5"/>
</svg>
